<svg width="30" height="30" viewBox="0 0 30 30" fill="none" xmlns="http://www.w3.org/2000/svg">
<g clip-path="url(#clip0)">
<path d="M8.45378 12.545C8.45378 12.915 8.49378 13.2138 8.56378 13.4325C8.64378 13.6525 8.74378 13.8925 8.88378 14.1525C8.93378 14.2313 8.95378 14.3113 8.95378 14.3813C8.95378 14.4813 8.89378 14.5813 8.76378 14.6813L8.13503 15.1C8.05903 15.1548 7.96863 15.1861 7.87503 15.19C7.77503 15.19 7.67503 15.14 7.57628 15.05C7.442 14.9056 7.32187 14.7486 7.21753 14.5813C7.10579 14.3896 7.00236 14.1931 6.90753 13.9925C6.13003 14.91 5.15128 15.3688 3.97378 15.3688C3.13628 15.3688 2.46753 15.13 1.97878 14.6513C1.49003 14.1713 1.24128 13.5338 1.24128 12.735C1.24128 11.8875 1.54003 11.1975 2.14878 10.68C2.75753 10.1613 3.56503 9.90128 4.59253 9.90128C4.93253 9.90128 5.28128 9.93128 5.65003 9.98128C6.02003 10.0313 6.40003 10.1113 6.79753 10.2013V9.47253C6.79753 8.71378 6.63878 8.18503 6.32878 7.87628C6.01003 7.56628 5.47128 7.41753 4.70378 7.41753C4.35378 7.41753 3.99378 7.45628 3.62503 7.54628C3.25628 7.63628 2.89628 7.74628 2.54753 7.88628C2.43382 7.93719 2.3169 7.98062 2.19753 8.01628C2.14612 8.03285 2.09273 8.04252 2.03878 8.04503C1.89878 8.04503 1.82878 7.94503 1.82878 7.73628V7.24753C1.82878 7.08753 1.84878 6.96753 1.89878 6.89753C1.97429 6.80678 2.07025 6.73524 2.17878 6.68878C2.57854 6.49029 3.00016 6.33926 3.43503 6.23878C3.9438 6.10853 4.46737 6.04508 4.99253 6.05003C6.18003 6.05003 7.04753 6.32003 7.60628 6.85878C8.15503 7.39628 8.43378 8.21503 8.43378 9.31253V12.545H8.45378ZM4.40378 14.0625C4.73253 14.0625 5.07128 14.0025 5.43128 13.8825C5.79719 13.7561 6.12379 13.5363 6.37878 13.245C6.53994 13.0608 6.65631 12.8417 6.71878 12.605C6.77753 12.3663 6.81878 12.0763 6.81878 11.7375V11.3188C6.51595 11.245 6.20922 11.1882 5.90003 11.1488C5.58908 11.1093 5.27597 11.0892 4.96253 11.0888C4.29378 11.0888 3.80503 11.2188 3.47503 11.4888C3.14628 11.7575 2.98753 12.1363 2.98753 12.635C2.98753 13.1038 3.10628 13.4538 3.35628 13.6925C3.59503 13.9425 3.94378 14.0625 4.40378 14.0625ZM12.4163 15.14C12.2363 15.14 12.1163 15.11 12.0363 15.04C11.9563 14.98 11.8863 14.84 11.8263 14.6513L9.48253 6.93753C9.43694 6.80819 9.40673 6.67393 9.39253 6.53753C9.39253 6.37753 9.47253 6.28753 9.63128 6.28753H10.61C10.7988 6.28753 10.9288 6.31878 10.9975 6.38753C11.0788 6.44753 11.1388 6.58753 11.1975 6.77753L12.875 13.3825L14.4313 6.77753C14.4813 6.57753 14.5413 6.44753 14.62 6.38753C14.74 6.31398 14.8796 6.27907 15.02 6.28753H15.8175C16.0075 6.28753 16.1375 6.31878 16.2175 6.38753C16.2963 6.44753 16.3675 6.58753 16.4063 6.77753L17.9825 13.4625L19.7088 6.77753C19.7688 6.57753 19.8388 6.44753 19.9088 6.38753C20.0246 6.31402 20.1606 6.27901 20.2975 6.28753H21.2263C21.385 6.28753 21.4763 6.36878 21.4763 6.53753C21.4763 6.58753 21.465 6.63753 21.455 6.69753C21.4394 6.78282 21.4159 6.86651 21.385 6.94753L18.9813 14.66C18.9213 14.86 18.8513 14.9888 18.7713 15.0488C18.6587 15.121 18.5261 15.156 18.3925 15.1488H17.5338C17.345 15.1488 17.215 15.1188 17.1338 15.0488C17.055 14.9788 16.985 14.8488 16.9463 14.6488L15.3988 8.21378L13.8613 14.6388C13.8113 14.8388 13.7525 14.9688 13.6738 15.0388C13.5925 15.1088 13.4525 15.1388 13.2738 15.1388L12.4163 15.14ZM25.2363 15.4088C24.7175 15.4088 24.1988 15.3488 23.7 15.23C23.2013 15.11 22.8125 14.98 22.5525 14.83C22.3925 14.7413 22.2838 14.6413 22.2438 14.5513C22.2048 14.463 22.1844 14.3677 22.1838 14.2713V13.7625C22.1838 13.5538 22.2638 13.4538 22.4125 13.4538C22.4725 13.4538 22.5325 13.4638 22.5925 13.4838C22.6525 13.5038 22.7425 13.5438 22.8425 13.5838C23.1813 13.7338 23.55 13.8525 23.94 13.9325C24.3388 14.0125 24.7275 14.0525 25.1275 14.0525C25.755 14.0525 26.245 13.9425 26.5838 13.7225C26.7462 13.6244 26.8797 13.4851 26.9708 13.3187C27.0619 13.1523 27.1074 12.9647 27.1025 12.775C27.1062 12.6466 27.0843 12.5187 27.0382 12.3987C26.9921 12.2788 26.9226 12.1692 26.8338 12.0763C26.6538 11.8875 26.3138 11.7175 25.825 11.5575L24.3788 11.1075C23.65 10.8788 23.1113 10.54 22.7825 10.0913C22.4608 9.67713 22.285 9.16822 22.2825 8.64378C22.2825 8.22503 22.3738 7.85628 22.5525 7.53628C22.7325 7.21753 22.9713 6.93753 23.2713 6.71878C23.5713 6.48878 23.9088 6.31878 24.3088 6.20003C24.7088 6.08003 25.1275 6.03003 25.5663 6.03003C25.785 6.03003 26.015 6.04003 26.235 6.07003C26.4638 6.10003 26.6725 6.14003 26.8825 6.18003C27.0825 6.23003 27.2725 6.28003 27.4513 6.33878C27.6313 6.39878 27.7713 6.45878 27.8713 6.51878C27.9891 6.57808 28.0917 6.66361 28.1713 6.76878C28.2357 6.86585 28.2669 6.98122 28.26 7.09753V7.56628C28.26 7.77628 28.18 7.88628 28.03 7.88628C27.8972 7.87105 27.7686 7.8303 27.6513 7.76628C27.0485 7.49999 26.3952 7.36737 25.7363 7.37753C25.1675 7.37753 24.7175 7.46628 24.4088 7.65628C24.0988 7.84628 23.94 8.13503 23.94 8.54378C23.94 8.82378 24.04 9.06378 24.24 9.25253C24.4388 9.44253 24.8075 9.63253 25.3363 9.80253L26.7538 10.25C27.4713 10.48 27.9913 10.8 28.3 11.2088C28.6088 11.6175 28.7588 12.0863 28.7588 12.605C28.7588 13.0338 28.6688 13.4238 28.5 13.7625C28.3226 14.1041 28.0741 14.4037 27.7713 14.6413C27.4613 14.8913 27.0925 15.07 26.6638 15.2C26.2138 15.3388 25.7463 15.4088 25.2363 15.4088ZM27.1225 20.2588C23.84 22.6838 19.07 23.97 14.97 23.97C9.22253 23.97 4.04503 21.845 0.132528 18.3125C-0.176222 18.0338 0.102528 17.6538 0.472528 17.8738C4.70253 20.3275 9.92128 21.815 15.3188 21.815C18.9613 21.815 22.9613 21.0563 26.6438 19.5C27.1925 19.25 27.6613 19.8588 27.1225 20.2588ZM28.49 18.7013C28.07 18.1638 25.715 18.4425 24.6475 18.5725C24.3288 18.6125 24.2788 18.3325 24.5688 18.1225C26.4438 16.8063 29.5275 17.185 29.8863 17.6238C30.245 18.0738 29.7863 21.1563 28.03 22.6325C27.7613 22.8625 27.5013 22.7425 27.6213 22.4438C28.0213 21.4563 28.9088 19.2313 28.49 18.7013Z" fill="#5429D8"/>
</g>
<defs>
<clipPath id="clip0">
<rect width="30" height="30" fill="white"/>
</clipPath>
</defs>
</svg>
