<?xml version="1.0" encoding="utf-8"?>
<!-- Generator: Adobe Illustrator 26.5.0, SVG Export Plug-In . SVG Version: 6.00 Build 0)  -->
<svg version="1.1" id="Graphic_Elements" xmlns="http://www.w3.org/2000/svg" xmlns:xlink="http://www.w3.org/1999/xlink" x="0px"
	 y="0px" viewBox="0 0 1200 1200" style="enable-background:new 0 0 1200 1200;" xml:space="preserve">
<style type="text/css">
	.st0{fill:#333B7F;}
	.st1{fill:#FFFFFF;}
</style>
<g>
	<circle class="st0" cx="600.92" cy="600" r="569.08"/>
	<path class="st1" d="M877.94,368.83c-2.18-6.35-4.77-8.08-8.83-9.62c-8.87-3.36-23.89,1.69-23.89,1.69S313.36,552.07,282.98,573.24
		c-6.55,4.56-8.73,7.2-9.82,10.31c-5.26,15.08,11.11,21.72,11.11,21.72l137.08,44.67c0,0,5.11,0.74,6.94-0.41
		c31.18-19.7,313.75-198.14,330.06-204.13c2.57-0.77,4.47,0.11,3.97,1.88c-6.53,22.89-251.95,241.04-251.95,241.04
		s-0.94,1.15-1.53,2.53l-0.32-0.19l-12.79,135.97c0,0-5.36,41.65,36.3,0c29.39-29.39,57.83-53.98,72.06-65.95
		c47.13,32.54,97.87,68.54,119.75,87.37c11,9.46,20.19,10.99,27.77,10.71c20.78-0.78,26.58-23.6,26.58-23.6
		S875.1,445.1,878.34,392.83c0.32-5.12,0.75-8.38,0.79-11.9C879.19,376.05,878.74,371.14,877.94,368.83z"/>
</g>
</svg>
